<svg xmlns="http://www.w3.org/2000/svg" viewBox="0 0 54 54" style="enable-background:new 0 0 54 54" xml:space="preserve"><g fill="#3DDC84" stroke="#3DDC84"><path stroke-width=".3" d="M27 0C12.112 0 0 12.112 0 27s12.112 27 27 27 27-12.112 27-27S41.888 0 27 0zm0 52C13.215 52 2 40.785 2 27S13.215 2 27 2s25 11.215 25 25-11.215 25-25 25z"/><path stroke-width="5" d="M27.707 18.935a.999.999 0 0 0-1.414 0l-10.5 10.5a.999.999 0 1 0 1.414 1.414L27 21.056l9.793 9.793a.997.997 0 0 0 1.414 0 .999.999 0 0 0 0-1.414l-10.5-10.5z"/></g></svg>